<?xml version="1.0" encoding="utf-8"?>
<!-- Generator: Adobe Illustrator 17.0.0, SVG Export Plug-In . SVG Version: 6.00 Build 0)  -->
<!DOCTYPE svg PUBLIC "-//W3C//DTD SVG 1.1//EN" "http://www.w3.org/Graphics/SVG/1.1/DTD/svg11.dtd">
<svg version="1.1" id="Layer_1" xmlns="http://www.w3.org/2000/svg" xmlns:xlink="http://www.w3.org/1999/xlink" x="0px" y="0px"
	 width="39.846px" height="39.794px" viewBox="0 0 39.846 39.794" enable-background="new 0 0 39.846 39.794" xml:space="preserve">
<path fill="#CECECE" d="M3.438,36.669l9.219-15.157c0.313,0.104,0.677,0.208,1.094,0.208c0.885,0,1.667-0.365,2.24-0.938
	l5.834,3.959c-0.26,0.521-0.313,1.146-0.208,1.719c0.208,1.302,1.25,2.344,2.552,2.552c0.156,0,0.313,0.052,0.469,0.052
	c0.885,0,1.771-0.417,2.344-1.094s0.833-1.615,0.729-2.5c-0.052-0.469-0.26-0.938-0.573-1.354l7.448-11.772
	c0.156,0.052,0.313,0.104,0.469,0.104c0.156,0,0.313,0.052,0.469,0.052c0.885,0,1.771-0.417,2.344-1.094s0.833-1.615,0.729-2.5
	c-0.208-1.302-1.25-2.344-2.552-2.552c-1.042-0.156-2.136,0.208-2.813,1.042c-0.573,0.677-0.833,1.615-0.729,2.5
	c0.104,0.625,0.365,1.198,0.781,1.615l-7.396,11.615c-0.26-0.104-0.521-0.208-0.781-0.26c-0.833-0.104-1.667,0.104-2.344,0.573
	l-6.042-4.115c0.052-0.26,0.104-0.469,0.104-0.729c0-1.719-1.406-3.073-3.073-3.073s-3.073,1.406-3.073,3.073
	c0,0.781,0.26,1.458,0.729,1.979L3.125,34.221V0H0v39.794h39.846v-3.125H3.438z M36.617,10.417
	c-0.365,0.417-0.885,0.573-1.406,0.521c-0.625-0.104-1.146-0.625-1.25-1.25c-0.052-0.208,0-0.417,0-0.573
	c0.052-0.26,0.156-0.469,0.313-0.625c0.208-0.26,0.469-0.417,0.781-0.469c0.104-0.052,0.26-0.052,0.365-0.052s0.156,0,0.26,0
	c0.052,0,0.104,0,0.156,0.052c0.573,0.156,0.99,0.625,1.094,1.198l0,0C37.034,9.636,36.929,10.105,36.617,10.417z M24.845,24.429
	c0.052,0,0.104,0,0.156,0.052c0.573,0.156,0.99,0.625,1.094,1.198l0,0c0.052,0.469-0.052,0.885-0.365,1.25
	c-0.365,0.417-0.885,0.573-1.406,0.521c-0.625-0.104-1.146-0.625-1.25-1.25c-0.052-0.208,0-0.417,0-0.573
	c0.052-0.26,0.156-0.469,0.313-0.625c0.208-0.26,0.469-0.417,0.781-0.469c0.104-0.052,0.26-0.052,0.365-0.052
	C24.689,24.429,24.741,24.429,24.845,24.429z M12.188,18.595c0-0.833,0.677-1.511,1.511-1.511c0.729,0,1.354,0.521,1.511,1.25
	c0,0.104,0.052,0.156,0.052,0.26c0,0.521-0.26,0.938-0.625,1.198c-0.26,0.208-0.573,0.313-0.885,0.313c-0.052,0-0.156,0-0.208,0
	c-0.573-0.104-1.042-0.469-1.198-0.99C12.24,18.96,12.188,18.803,12.188,18.595z"/>
</svg>
